name C:\Users\r0593348\3dpredictsim\Results\MidTarsalJoint\Fal_s1_bCst_PF_Natali2010_ls150_MT_k400_d020_MTP_T5_ig21.mot
datacolumns 128
datarows 4
range 0.56242155 0.59616685
endheader
time	pelvis_tilt	pelvis_list	pelvis_rotation	pelvis_tx	pelvis_ty	pelvis_tz	hip_flexion_l	hip_adduction_l	hip_rotation_l	hip_flexion_r	hip_adduction_r	hip_rotation_r	knee_angle_l	knee_angle_r	ankle_angle_l	ankle_angle_r	subtalar_angle_l	subtalar_angle_r	mtj_angle_l	mtj_angle_r	mtp_angle_l	mtp_angle_r	lumbar_extension	lumbar_bending	lumbar_rotation	arm_flex_l	arm_add_l	arm_rot_l	arm_flex_r	arm_add_r	arm_rot_r	elbow_flex_l	elbow_flex_r	pro_sup_l	pro_sup_r	glut_med1_l/activation	glut_med2_l/activation	glut_med3_l/activation	glut_min1_l/activation	glut_min2_l/activation	glut_min3_l/activation	semimem_l/activation	semiten_l/activation	bifemlh_l/activation	bifemsh_l/activation	sar_l/activation	add_long_l/activation	add_brev_l/activation	add_mag1_l/activation	add_mag2_l/activation	add_mag3_l/activation	tfl_l/activation	pect_l/activation	grac_l/activation	glut_max1_l/activation	glut_max2_l/activation	glut_max3_l/activation	iliacus_l/activation	psoas_l/activation	quad_fem_l/activation	gem_l/activation	peri_l/activation	rect_fem_l/activation	vas_med_l/activation	vas_int_l/activation	vas_lat_l/activation	med_gas_l/activation	lat_gas_l/activation	soleus_l/activation	tib_post_l/activation	flex_dig_l/activation	flex_hal_l/activation	tib_ant_l/activation	per_brev_l/activation	per_long_l/activation	per_tert_l/activation	ext_dig_l/activation	ext_hal_l/activation	ercspn_l/activation	intobl_l/activation	extobl_l/activation	glut_med1_r/activation	glut_med2_r/activation	glut_med3_r/activation	glut_min1_r/activation	glut_min2_r/activation	glut_min3_r/activation	semimem_r/activation	semiten_r/activation	bifemlh_r/activation	bifemsh_r/activation	sar_r/activation	add_long_r/activation	add_brev_r/activation	add_mag1_r/activation	add_mag2_r/activation	add_mag3_r/activation	tfl_r/activation	pect_r/activation	grac_r/activation	glut_max1_r/activation	glut_max2_r/activation	glut_max3_r/activation	iliacus_r/activation	psoas_r/activation	quad_fem_r/activation	gem_r/activation	peri_r/activation	rect_fem_r/activation	vas_med_r/activation	vas_int_r/activation	vas_lat_r/activation	med_gas_r/activation	lat_gas_r/activation	soleus_r/activation	tib_post_r/activation	flex_dig_r/activation	flex_hal_r/activation	tib_ant_r/activation	per_brev_r/activation	per_long_r/activation	per_tert_r/activation	ext_dig_r/activation	ext_hal_r/activation	ercspn_r/activation	intobl_r/activation	extobl_r/activation	
          0.56242155	         -2.93017638	          2.13722671	         -5.16895053	          0.70302694	          0.91896310	          0.00160493	         29.38242284	          3.46815389	         -2.18142187	        -17.05373038	         -1.12208077	          6.51318692	        -11.63656398	         -7.38145562	          5.69589777	         -1.34735158	         -4.50269470	          8.40989270	         -0.01914194	          3.86749161	         -0.86479018	         13.47544339	         -2.01777969	         -0.30394021	          2.03101075	         -5.26538489	        -13.45231230	          5.36961344	          4.61768279	        -13.45336252	         15.36043866	         17.55369694	         34.76829386	         86.51662706	         86.51662706	          0.05937320	          0.05937328	          0.05000040	          0.05937374	          0.05937366	          0.05005003	          0.11768884	          0.05937382	          0.22682008	          0.05000061	          0.05000079	          0.13881214	          0.30462940	          0.12467111	          0.14311799	          0.10432542	          0.05000026	          0.08362118	          0.09862811	          0.05000109	          0.10707729	          0.15297504	          0.05077084	          0.05000050	          0.16268583	          0.26207066	          0.13190897	          0.05050624	          0.13015714	          0.12817125	          0.11428760	          0.05030804	          0.05003786	          0.05383131	          0.05000005	          0.05000078	          0.05000042	          0.53442104	          0.25665275	          0.16658386	          0.24782741	          0.46262354	          0.21530245	          0.05937370	          0.11350292	          0.10374294	          0.26464769	          0.09944766	          0.07831252	          0.29316358	          0.19614669	          0.11019931	          0.05000176	          0.05000049	          0.05000033	          0.05937580	          0.10546849	          0.08422032	          0.05000782	          0.05000258	          0.05000458	          0.05000133	          0.30591599	          0.08352276	          0.05000619	          0.05000963	          0.05000597	          0.05000465	          0.41820299	          0.64038430	          0.05000303	          0.05000144	          0.05321112	          0.23733542	          0.05001048	          0.05000969	          0.05000693	          0.29186079	          0.39601770	          0.32915621	          0.27975562	          0.27335418	          0.35999842	          0.05000010	          0.05664624	          0.11788420	          0.05000057	          0.05000015	          0.05000055	          0.05000006	          0.05000016	          0.05000025	
          0.57366998	         -2.92787591	          2.21999044	         -5.45479578	          0.71992842	          0.91798553	          0.00141231	         28.74301787	          3.79416980	         -1.94510241	        -16.97894426	         -1.41470255	          6.31951321	        -11.82155200	         -9.19849491	          5.04690587	         -1.90940177	         -4.87323933	          9.34809188	          0.00099157	          3.23226321	         -0.86145628	         14.96190738	         -1.81956997	         -0.49880955	          2.09643595	         -6.10238737	        -13.45048207	          5.17432993	          4.35231243	        -13.45861819	         15.69989904	         17.10068621	         35.90324143	         86.51662706	         86.51662706	          0.05000003	          0.05000012	          0.10334205	          0.05000013	          0.05000015	          0.05000021	          0.09910882	          0.05000064	          0.19101071	          0.05000036	          0.05004003	          0.11689780	          0.25658130	          0.30815965	          0.20971872	          0.11867762	          0.05000138	          0.07046663	          0.12534705	          0.05105337	          0.10678920	          0.12882496	          0.05000026	          0.05937696	          0.41655990	          0.22069604	          0.11108379	          0.05937598	          0.14003545	          0.14092068	          0.12143869	          0.05000047	          0.05937186	          0.05000007	          0.05937687	          0.05002747	          0.05937557	          0.45732841	          0.26661534	          0.20129610	          0.20870169	          0.42944154	          0.18131149	          0.05000004	          0.09558353	          0.08736442	          0.22286627	          0.08374730	          0.06594895	          0.24688047	          0.16517996	          0.09280159	          0.05000697	          0.05000146	          0.05000181	          0.05000205	          0.08881815	          0.16739271	          0.05035951	          0.05938311	          0.05927537	          0.05937388	          0.25761949	          0.07862539	          0.05005811	          0.05000754	          0.05000476	          0.05000591	          0.35217896	          0.59705281	          0.05000226	          0.05937331	          0.05937414	          0.19986599	          0.14252565	          0.13570001	          0.14330857	          0.24578294	          0.33349603	          0.28465158	          0.24637486	          0.23019985	          0.30316774	          0.05000011	          0.05000026	          0.13077253	          0.05000031	          0.05000010	          0.05000048	          0.05508743	          0.05972837	          0.05937279	
          0.58491841	         -2.92184213	          2.30651224	         -5.71080331	          0.73711656	          0.91708248	          0.00123451	         27.99088607	          4.04157024	         -1.68487804	        -16.83705371	         -1.70798331	          6.11843410	        -12.32400952	        -11.11545590	          4.51204991	         -2.61622964	         -5.26041479	         10.24675547	         -0.16084030	          2.47392496	         -0.89355005	         16.48776384	         -1.60140582	         -0.70622754	          2.15060433	         -6.96608899	        -13.45516338	          5.03135809	          4.01562897	        -13.46016850	         15.97659301	         16.70203172	         37.00679388	         86.51662706	         86.51662706	          0.22759624	          0.22781431	          0.28362409	          0.33620710	          0.21638295	          0.19840993	          0.09216001	          0.05817508	          0.16085548	          0.08361039	          0.05000306	          0.09844255	          0.21607343	          0.25950881	          0.17660952	          0.11575299	          0.05000114	          0.05937058	          0.10556143	          0.05000187	          0.13052150	          0.10848707	          0.05490902	          0.05000332	          0.35079515	          0.18585368	          0.20917860	          0.05000199	          0.11792735	          0.11867284	          0.10226655	          0.05000234	          0.05000217	          0.05136325	          0.05000279	          0.05000103	          0.05000239	          0.54095766	          0.32448195	          0.17012617	          0.32370026	          0.50064098	          0.15270251	          0.05905613	          0.11805662	          0.07357167	          0.32145926	          0.07052566	          0.05553733	          0.31268968	          0.13910223	          0.07815055	          0.05000382	          0.05000054	          0.05000044	          0.05000046	          0.07479675	          0.14096564	          0.05000395	          0.05000863	          0.05000345	          0.05000247	          0.24727226	          0.06621647	          0.05000217	          0.05001067	          0.05000603	          0.05000363	          0.29657867	          0.56797976	          0.05000082	          0.05000253	          0.05000092	          0.16831200	          0.12002572	          0.11427759	          0.12068465	          0.20697967	          0.28084499	          0.23971189	          0.20747837	          0.19385724	          0.25530523	          0.05000005	          0.09198671	          0.15121189	          0.05000031	          0.05000011	          0.05000033	          0.05000017	          0.05029870	          0.05000012	
          0.59616685	         -2.91431797	          2.38635260	         -5.93190842	          0.75438175	          0.91628123	          0.00103493	         27.19262534	          4.26930067	         -1.42560082	        -16.59127110	         -1.99080802	          5.92571461	        -12.79210066	        -13.17235376	          4.00888924	         -3.49286915	         -5.64994812	         11.10927441	         -0.13901932	          1.65524365	         -0.86135605	         17.96382222	         -1.38618028	         -0.91525972	          2.19642497	         -7.81096999	        -13.46056612	          4.93966680	          3.64272132	        -13.46706034	         16.21674534	         16.33837854	         38.06062139	         86.51662706	         86.51662706	          0.32054426	          0.31854962	          0.34733292	          0.28312847	          0.18222323	          0.18018142	          0.07882078	          0.08322098	          0.13546049	          0.07041143	          0.05000166	          0.08290092	          0.18196073	          0.21853921	          0.14875665	          0.15648628	          0.05000072	          0.05000320	          0.08889955	          0.20217241	          0.18164825	          0.15252443	          0.05000017	          0.05000019	          0.29541312	          0.15651200	          0.17615501	          0.05000014	          0.12121773	          0.14230669	          0.10139820	          0.05000007	          0.05000014	          0.05000002	          0.05000004	          0.05000024	          0.05000023	          0.59659441	          0.29632432	          0.16411363	          0.55527514	          0.53757669	          0.26962931	          0.07940006	          0.09941834	          0.06195648	          0.30485591	          0.05939140	          0.05000031	          0.26334201	          0.11714149	          0.06581256	          0.05000646	          0.05000061	          0.05000054	          0.05000049	          0.06298890	          0.14256368	          0.05000318	          0.05000387	          0.05000654	          0.05000309	          0.20823749	          0.05813159	          0.05000301	          0.05000666	          0.05000391	          0.05000274	          0.24975610	          0.52329774	          0.05000060	          0.05000218	          0.05000049	          0.14173959	          0.11939349	          0.13238767	          0.11805387	          0.17430252	          0.23650628	          0.20186709	          0.17472259	          0.16325208	          0.21499885	          0.05000074	          0.09008134	          0.15609286	          0.05000092	          0.10270682	          0.05000132	          0.07382153	          0.05000004	          0.05000010	
